<?xml version="1.0" encoding="utf-8"?>
<!-- Generator: Adobe Illustrator 16.0.0, SVG Export Plug-In . SVG Version: 6.00 Build 0)  -->
<!DOCTYPE svg PUBLIC "-//W3C//DTD SVG 1.1//EN" "http://www.w3.org/Graphics/SVG/1.1/DTD/svg11.dtd">
<svg version="1.1" id="Layer_1" xmlns="http://www.w3.org/2000/svg" xmlns:xlink="http://www.w3.org/1999/xlink" x="0px" y="0px"
	 width="841.889px" height="812.141px" viewBox="5 -197.718 841.889 812.141" enable-background="new 5 -197.718 841.889 812.141"
	 xml:space="preserve">
<g>
	<path fill="#4BC0CC" d="M452.66-168.406c-0.215-0.203-0.449-0.38-0.668-0.577c-0.371-0.332-0.739-0.667-1.123-0.973
		c-0.306-0.249-0.629-0.473-0.945-0.705c-0.393-0.288-0.784-0.577-1.188-0.841c-0.308-0.2-0.627-0.386-0.947-0.574
		c-0.443-0.265-0.889-0.529-1.344-0.765c-0.271-0.142-0.55-0.267-0.827-0.398c-0.525-0.252-1.056-0.499-1.595-0.717
		c-0.197-0.077-0.395-0.142-0.592-0.212c-0.639-0.239-1.278-0.465-1.931-0.654c-0.074-0.022-0.15-0.039-0.225-0.059
		c-0.781-0.216-1.569-0.397-2.361-0.542c-0.049-0.007-0.098-0.019-0.145-0.024c-1.565-0.293-3.176-0.465-4.826-0.465
		c0,0,0,0-0.004,0.001c-1.563-0.001-3.079,0.177-4.567,0.44c-0.238,0.039-0.478,0.079-0.715,0.127
		c-0.604,0.122-1.204,0.262-1.799,0.422c-0.361,0.098-0.716,0.211-1.071,0.326c-0.485,0.153-0.971,0.303-1.447,0.484
		c-0.846,0.323-1.68,0.67-2.484,1.073c-0.082,0.045-0.17,0.082-0.253,0.125c-0.62,0.314-1.229,0.669-1.829,1.039
		c-0.165,0.104-0.34,0.199-0.504,0.305c-0.513,0.332-1.01,0.694-1.507,1.062c-0.229,0.174-0.468,0.338-0.693,0.519
		c-0.41,0.327-0.803,0.682-1.197,1.036c-0.215,0.188-0.439,0.36-0.649,0.558c0,0-0.516,0.492-1.49,1.466
		c-14.489,14.49-141.566,147.501-141.569,352.952c0,83.563,9.841,170.156,27.71,243.828
		c13.167,54.264,36.925,127.141,75.337,166.126c5.086,5.161,12.031,8.067,19.276,8.067l39.458-0.002l39.459-0.002
		c7.178,0,14.06-2.854,19.135-7.925c0.042-0.047,0.092-0.092,0.14-0.141c38.408-38.98,62.162-111.855,75.324-166.125
		c17.872-73.668,27.713-160.264,27.718-243.83c-0.001-112.37-38.622-202.448-71.021-258.228
		C489.507-132.807,454.149-166.98,452.66-168.406z"/>
	<path fill="#1EB7CD" d="M433.947-175.92c0,0,0,0-0.004,0c-1.562,0-3.078,0.178-4.566,0.44c-0.238,0.04-0.478,0.08-0.715,0.128
		c-0.604,0.122-1.203,0.261-1.8,0.421c-0.36,0.098-0.714,0.211-1.071,0.327c-0.485,0.152-0.971,0.302-1.447,0.483
		c-0.844,0.324-1.68,0.67-2.483,1.074c-0.084,0.045-0.173,0.082-0.254,0.125c-0.621,0.314-1.228,0.669-1.831,1.039
		c-0.164,0.104-0.338,0.199-0.503,0.305c-0.513,0.332-1.01,0.694-1.506,1.062c-0.231,0.172-0.468,0.338-0.693,0.519
		c-0.409,0.328-0.803,0.682-1.198,1.035c-0.214,0.188-0.439,0.36-0.649,0.558c0,0-0.516,0.493-1.489,1.466
		c-14.49,14.489-141.566,147.501-141.569,352.951c0,83.563,9.841,170.156,27.711,243.829
		c13.166,54.271,36.923,127.147,75.335,166.133c5.086,5.161,12.031,8.067,19.276,8.067l39.458-0.002L433.947-175.92z"/>
</g>
</svg>
